Nederlands gesproken,
Simba's dochter Kiara is nu groot en gaat voor het eerst zelf op onderzoek uit in het koninkrijk. Ze komt per ongeluk in het verboden land terecht en ontmoet Kovu, een verbannen leeuwtje. Kovu is geadopteerd door Scar en Zira. Kovu en Kiara worden verliefd. Maar Kiara mag niet met Kovu omgaan, omdat Kovu bij de troep van Scar hoort. En Kovu mag niet meer met Kiara omgaan, omdat Simba Scar heeft vermoord. Maar zal hun liefde sterk genoeg zijn om toch bij elkaar te blijven?

Dutch spoken,
Simba's daughter is the key to a resolution of a bitter feud between Simba's pride and the outcast pride led by the mate of Scar. 

------------------ Dutch Friends ------------------
You can find my Friends at: http://www.Film-Test.nl 
------ They got my dutch subs ----- and more ------

General:

Complete name                    : The Lion King 2\The Lion King 2.avi
Format                           : AVI
Format/Info                      : Audio Video Interleave
File size                        : 1.23 GiB
Duration                         : 1h 17mn
Overall bit rate                 : 2 264 Kbps

Video:

Format                           : MPEG-4 Visual
Format profile                   : Simple@L3
Format settings, BVOP            : No
Format settings, QPel            : No
Format settings, GMC             : No warppoints
Format settings, Matrix          : Default (H.263)
Codec ID                         : XVID
Codec ID/Hint                    : XviD
Duration                         : 1h 17mn
Bit rate                         : 1 869 Kbps
Width                            : 704 pixels
Height                           : 424 pixels
Display aspect ratio             : 1.660
Frame rate                       : 25.000 fps
Color space                      : YUV
Chroma subsampling               : 4:2:0
Bit depth                        : 8 bits
Scan type                        : Progressive
Compression mode                 : Lossy
Bits/(Pixel*Frame)               : 0.250
Stream size                      : 1.01 GiB (83%)
Writing library                  : XviD 1.1.2 (UTC 2006-11-01)

Audio:

Format                           : AC-3
Format/Info                      : Audio Coding 3
Mode extension                   : CM (complete main)
Codec ID                         : 2000
Duration                         : 1h 17mn
Bit rate mode                    : Constant
Bit rate                         : 384 Kbps
Channel(s)                       : 6 channels
Channel positions                : Front: L C R, Side: L R, LFE
Sampling rate                    : 48.0 KHz
Bit depth                        : 16 bits
Compression mode                 : Lossy
Stream size                      : 213 MiB (17%)
Alignment                        : Aligned on interleaves
Interleave, duration             : 32 ms (0.80 video frame)

